<svg width="118" height="32" viewBox="0 0 118 32" fill="none" xmlns="http://www.w3.org/2000/svg">
<path d="M13.6477 8.42045C13.5568 7.50379 13.1667 6.79167 12.4773 6.28409C11.7879 5.77651 10.8523 5.52273 9.67045 5.52273C8.86742 5.52273 8.18939 5.63636 7.63636 5.86364C7.08333 6.08333 6.65909 6.39015 6.36364 6.78409C6.07576 7.17803 5.93182 7.625 5.93182 8.125C5.91667 8.54167 6.00379 8.9053 6.19318 9.21591C6.39015 9.52652 6.65909 9.79545 7 10.0227C7.34091 10.2424 7.73485 10.4356 8.18182 10.6023C8.62879 10.7614 9.10606 10.8977 9.61364 11.0114L11.7045 11.5114C12.7197 11.7386 13.6515 12.0417 14.5 12.4205C15.3485 12.7992 16.0833 13.2652 16.7045 13.8182C17.3258 14.3712 17.8068 15.0227 18.1477 15.7727C18.4962 16.5227 18.6742 17.3826 18.6818 18.3523C18.6742 19.7765 18.3106 21.0114 17.5909 22.0568C16.8788 23.0947 15.8485 23.9015 14.5 24.4773C13.1591 25.0455 11.5417 25.3295 9.64773 25.3295C7.76894 25.3295 6.13258 25.0417 4.73864 24.4659C3.35227 23.8902 2.26894 23.0379 1.48864 21.9091C0.715909 20.7727 0.310606 19.3674 0.272727 17.6932H5.03409C5.08712 18.4735 5.31061 19.125 5.70455 19.6477C6.10606 20.1629 6.64015 20.553 7.30682 20.8182C7.98106 21.0758 8.74242 21.2045 9.59091 21.2045C10.4242 21.2045 11.1477 21.0833 11.7614 20.8409C12.3826 20.5985 12.8636 20.2614 13.2045 19.8295C13.5455 19.3977 13.7159 18.9015 13.7159 18.3409C13.7159 17.8182 13.5606 17.3788 13.25 17.0227C12.947 16.6667 12.5 16.3636 11.9091 16.1136C11.3258 15.8636 10.6098 15.6364 9.76136 15.4318L7.22727 14.7955C5.26515 14.3182 3.71591 13.572 2.57955 12.5568C1.44318 11.5417 0.878788 10.1742 0.886364 8.45454C0.878788 7.04545 1.25379 5.81439 2.01136 4.76136C2.77652 3.70833 3.82576 2.88636 5.15909 2.29545C6.49242 1.70454 8.00758 1.40909 9.70455 1.40909C11.4318 1.40909 12.9394 1.70454 14.2273 2.29545C15.5227 2.88636 16.5303 3.70833 17.25 4.76136C17.9697 5.81439 18.3409 7.03409 18.3636 8.42045H13.6477ZM26.7415 14.9091V25H21.9006V1.72727H26.6051V10.625H26.8097C27.2036 9.5947 27.84 8.78788 28.7188 8.20454C29.5975 7.61364 30.6998 7.31818 32.0256 7.31818C33.2377 7.31818 34.2945 7.58333 35.196 8.11364C36.1051 8.63636 36.8097 9.39015 37.3097 10.375C37.8172 11.3523 38.0672 12.5227 38.0597 13.8864V25H33.2188V14.75C33.2263 13.6742 32.9536 12.8371 32.4006 12.2386C31.8551 11.6402 31.09 11.3409 30.1051 11.3409C29.446 11.3409 28.8627 11.4811 28.3551 11.7614C27.8551 12.0417 27.4612 12.4508 27.1733 12.9886C26.893 13.5189 26.7491 14.1591 26.7415 14.9091ZM49.7557 25.3409C47.9905 25.3409 46.464 24.9659 45.1761 24.2159C43.8958 23.4583 42.9072 22.4053 42.2102 21.0568C41.5133 19.7008 41.1648 18.1288 41.1648 16.3409C41.1648 14.5379 41.5133 12.9621 42.2102 11.6136C42.9072 10.2576 43.8958 9.20454 45.1761 8.45454C46.464 7.69697 47.9905 7.31818 49.7557 7.31818C51.5208 7.31818 53.0436 7.69697 54.3239 8.45454C55.6117 9.20454 56.6042 10.2576 57.3011 11.6136C57.9981 12.9621 58.3466 14.5379 58.3466 16.3409C58.3466 18.1288 57.9981 19.7008 57.3011 21.0568C56.6042 22.4053 55.6117 23.4583 54.3239 24.2159C53.0436 24.9659 51.5208 25.3409 49.7557 25.3409ZM49.7784 21.5909C50.5814 21.5909 51.2519 21.3636 51.7898 20.9091C52.3277 20.447 52.733 19.8182 53.0057 19.0227C53.286 18.2273 53.4261 17.322 53.4261 16.3068C53.4261 15.2917 53.286 14.3864 53.0057 13.5909C52.733 12.7955 52.3277 12.1667 51.7898 11.7045C51.2519 11.2424 50.5814 11.0114 49.7784 11.0114C48.9678 11.0114 48.286 11.2424 47.733 11.7045C47.1875 12.1667 46.7746 12.7955 46.4943 13.5909C46.2216 14.3864 46.0852 15.2917 46.0852 16.3068C46.0852 17.322 46.2216 18.2273 46.4943 19.0227C46.7746 19.8182 47.1875 20.447 47.733 20.9091C48.286 21.3636 48.9678 21.5909 49.7784 21.5909Z" fill="#4F4F4F"/>
<path d="M61.4943 31.5455V7.54545H66.267V10.4773H66.483C66.6951 10.0076 67.0019 9.5303 67.4034 9.04545C67.8125 8.55303 68.3428 8.14394 68.9943 7.81818C69.6534 7.48485 70.4716 7.31818 71.4489 7.31818C72.7216 7.31818 73.8958 7.65152 74.9716 8.31818C76.0473 8.97727 76.9072 9.97348 77.5511 11.3068C78.1951 12.6326 78.517 14.2955 78.517 16.2955C78.517 18.2424 78.2027 19.8864 77.5739 21.2273C76.9527 22.5606 76.1042 23.572 75.0284 24.2614C73.9602 24.9432 72.7633 25.2841 71.4375 25.2841C70.4981 25.2841 69.6989 25.1288 69.0398 24.8182C68.3883 24.5076 67.8542 24.1174 67.4375 23.6477C67.0208 23.1705 66.7027 22.6894 66.483 22.2045H66.3352V31.5455H61.4943ZM66.233 16.2727C66.233 17.3106 66.3769 18.2159 66.6648 18.9886C66.9527 19.7614 67.3693 20.3636 67.9148 20.7955C68.4602 21.2197 69.1231 21.4318 69.9034 21.4318C70.6913 21.4318 71.358 21.2159 71.9034 20.7841C72.4489 20.3447 72.8617 19.7386 73.142 18.9659C73.4299 18.1856 73.5739 17.2879 73.5739 16.2727C73.5739 15.2652 73.4337 14.3788 73.1534 13.6136C72.8731 12.8485 72.4602 12.25 71.9148 11.8182C71.3693 11.3864 70.6989 11.1705 69.9034 11.1705C69.1155 11.1705 68.4489 11.3788 67.9034 11.7955C67.3655 12.2121 66.9527 12.803 66.6648 13.5682C66.3769 14.3333 66.233 15.2348 66.233 16.2727ZM91.1307 7.54545V11.1818H80.358V7.54545H91.1307ZM82.8239 25V6.28409C82.8239 5.01894 83.0701 3.9697 83.5625 3.13636C84.0625 2.30303 84.7443 1.67803 85.608 1.26136C86.4716 0.844695 87.4527 0.636362 88.5511 0.636362C89.2936 0.636362 89.9716 0.693181 90.5852 0.806818C91.2064 0.920454 91.6686 1.02273 91.9716 1.11364L91.108 4.75C90.9186 4.68939 90.6837 4.63257 90.4034 4.57954C90.1307 4.52651 89.8504 4.5 89.5625 4.5C88.8504 4.5 88.3542 4.66667 88.0739 5C87.7936 5.32576 87.6534 5.78409 87.6534 6.375V25H82.8239ZM97.0767 31.5455C96.4631 31.5455 95.8873 31.4962 95.3494 31.3977C94.8191 31.3068 94.3797 31.1894 94.0312 31.0455L95.1222 27.4318C95.6903 27.6061 96.2017 27.7008 96.6562 27.7159C97.1184 27.7311 97.5161 27.625 97.8494 27.3977C98.1903 27.1705 98.4669 26.7841 98.679 26.2386L98.9631 25.5L92.7017 7.54545H97.7926L101.406 20.3636H101.588L105.236 7.54545H110.361L103.577 26.8864C103.251 27.8258 102.808 28.6439 102.247 29.3409C101.694 30.0455 100.993 30.5871 100.145 30.9659C99.2964 31.3523 98.2737 31.5455 97.0767 31.5455ZM114.574 25.2955C113.824 25.2955 113.18 25.0303 112.642 24.5C112.112 23.9621 111.847 23.3182 111.847 22.5682C111.847 21.8258 112.112 21.1894 112.642 20.6591C113.18 20.1288 113.824 19.8636 114.574 19.8636C115.301 19.8636 115.938 20.1288 116.483 20.6591C117.028 21.1894 117.301 21.8258 117.301 22.5682C117.301 23.0682 117.172 23.5265 116.915 23.9432C116.665 24.3523 116.335 24.6818 115.926 24.9318C115.517 25.1742 115.066 25.2955 114.574 25.2955Z" fill="#0349E1"/>
</svg>
